<svg width="830" height="135" viewBox="0 0 830 135" fill="none" xmlns="http://www.w3.org/2000/svg">
<g clip-path="url(#clip0_375_6459)">
<rect width="830" height="135" rx="14" fill="#301F16"/>
<rect width="830" height="135" rx="14" fill="#301F16"/>
<rect width="830" height="135" rx="14" fill="url(#paint0_radial_375_6459)" fill-opacity="0.2"/>
<rect width="830" height="135" rx="14" fill="url(#paint1_radial_375_6459)" fill-opacity="0.2"/>
<path fill-rule="evenodd" clip-rule="evenodd" d="M39.0098 30.8346L28 30.835V25.123H39.0098V30.835H44.754V41.8771H39.0098V36.5471C36.093 36.5979 33.7442 38.9647 33.7442 41.8771H28C28 35.8103 32.9205 30.8862 39.0098 30.835V30.8346Z" fill="#FFA0A0"/>
<path d="M61.6859 42H57.9619V28.728H53.2019V25.368H66.5859L66.3059 28.728H61.6859V42ZM78.6292 29.596V42H75.0452V40.964C74.4665 41.412 73.8785 41.7387 73.2812 41.944C72.6839 42.1493 72.0399 42.252 71.3492 42.252C70.0799 42.252 69.0532 41.8973 68.2692 41.188C67.4852 40.46 67.0932 39.3307 67.0932 37.8V29.764L70.6772 29.596V37.044C70.6772 37.772 70.8545 38.2947 71.2092 38.612C71.5639 38.9293 72.0492 39.088 72.6652 39.088C73.0759 39.088 73.4865 39.0227 73.8972 38.892C74.3079 38.7427 74.6905 38.556 75.0452 38.332V29.764L78.6292 29.596ZM88.2846 29.568L88.1446 33.012C88.0326 32.956 87.8366 32.9 87.5566 32.844C87.2953 32.788 87.0433 32.76 86.8006 32.76C86.2966 32.76 85.8019 32.8533 85.3166 33.04C84.8499 33.208 84.4206 33.4413 84.0286 33.74V42H80.4446V29.764L84.0286 29.596V31.052C84.5699 30.492 85.1206 30.0813 85.6806 29.82C86.2593 29.5587 86.8566 29.428 87.4726 29.428C87.6033 29.428 87.7433 29.4373 87.8926 29.456C88.0606 29.4747 88.1913 29.512 88.2846 29.568ZM101.413 35.644C101.413 36.9507 101.133 38.108 100.573 39.116C100.013 40.1053 99.2102 40.88 98.1649 41.44C97.1195 41.9813 95.8689 42.252 94.4129 42.252C93.4049 42.252 92.4435 42.1493 91.5289 41.944C90.6142 41.72 89.8022 41.44 89.0929 41.104V24.416L92.6769 24.248V30.436C93.1809 30.0813 93.6849 29.8293 94.1889 29.68C94.7115 29.512 95.2809 29.428 95.8969 29.428C96.9422 29.428 97.8755 29.68 98.6969 30.184C99.5369 30.688 100.2 31.4067 100.685 32.34C101.17 33.2547 101.413 34.356 101.413 35.644ZM97.7169 35.812C97.7169 35.14 97.6049 34.5613 97.3809 34.076C97.1569 33.572 96.8209 33.1893 96.3729 32.928C95.9435 32.648 95.4022 32.508 94.7489 32.508C93.9462 32.508 93.2555 32.7227 92.6769 33.152V38.836C92.9195 38.9293 93.1995 39.0133 93.5169 39.088C93.8529 39.144 94.1982 39.172 94.5529 39.172C95.2062 39.172 95.7662 39.0413 96.2329 38.78C96.6995 38.5 97.0635 38.108 97.3249 37.604C97.5862 37.0813 97.7169 36.484 97.7169 35.812ZM113.056 42H109.668V41.048C109.22 41.4027 108.678 41.692 108.044 41.916C107.409 42.14 106.709 42.252 105.944 42.252C104.581 42.252 103.536 41.9253 102.808 41.272C102.098 40.6187 101.744 39.7133 101.744 38.556C101.744 37.3053 102.182 36.3627 103.06 35.728C103.937 35.0747 105.122 34.748 106.616 34.748C107.157 34.748 107.698 34.7947 108.24 34.888C108.781 34.9813 109.22 35.1027 109.556 35.252V34.58C109.556 33.852 109.322 33.3387 108.856 33.04C108.408 32.7227 107.698 32.564 106.728 32.564C106.037 32.564 105.328 32.648 104.6 32.816C103.89 32.984 103.321 33.1987 102.892 33.46L102.752 30.324C103.33 30.044 104.012 29.8293 104.796 29.68C105.598 29.512 106.42 29.428 107.26 29.428C109.126 29.428 110.554 29.8293 111.544 30.632C112.552 31.416 113.056 32.6573 113.056 34.356V42ZM109.556 39.144V37.38C109.294 37.2493 108.968 37.1467 108.576 37.072C108.202 36.9973 107.838 36.96 107.484 36.96C106.774 36.96 106.233 37.0907 105.86 37.352C105.486 37.5947 105.3 37.9773 105.3 38.5C105.3 38.9853 105.458 39.34 105.776 39.564C106.093 39.7693 106.56 39.872 107.176 39.872C107.605 39.872 108.044 39.8067 108.492 39.676C108.94 39.5267 109.294 39.3493 109.556 39.144ZM133.608 29.68L129.968 42H126.16L124.704 37.66C124.443 36.764 124.228 36.0453 124.06 35.504C123.892 34.944 123.752 34.4307 123.64 33.964H123.5C123.407 34.4307 123.267 34.944 123.08 35.504C122.912 36.0453 122.697 36.764 122.436 37.66L120.98 42H117.172L113.532 29.764L117.144 29.596L118.796 35.476C118.889 35.868 118.983 36.3347 119.076 36.876C119.188 37.3987 119.272 37.884 119.328 38.332H119.468C119.524 37.884 119.617 37.3987 119.748 36.876C119.879 36.3347 120 35.868 120.112 35.476L121.736 30.604H125.544L127.168 35.476C127.28 35.868 127.401 36.3347 127.532 36.876C127.663 37.3987 127.756 37.884 127.812 38.332H127.952C128.008 37.884 128.083 37.3987 128.176 36.876C128.288 36.3347 128.391 35.868 128.484 35.476L130.08 29.68H133.608ZM142.882 30.044L142.35 32.956C141.958 32.7693 141.472 32.62 140.894 32.508C140.334 32.3773 139.764 32.312 139.186 32.312C138.663 32.312 138.271 32.396 138.01 32.564C137.767 32.732 137.646 32.956 137.646 33.236C137.646 33.46 137.786 33.656 138.066 33.824C138.346 33.9733 138.7 34.1133 139.13 34.244C139.578 34.3747 140.044 34.5333 140.53 34.72C141.034 34.9067 141.5 35.14 141.93 35.42C142.378 35.7 142.732 36.0733 142.994 36.54C143.274 36.988 143.414 37.5573 143.414 38.248C143.414 38.9573 143.236 39.62 142.882 40.236C142.546 40.8333 141.986 41.3187 141.202 41.692C140.436 42.0653 139.438 42.252 138.206 42.252C137.366 42.252 136.544 42.1587 135.742 41.972C134.958 41.7853 134.323 41.5427 133.838 41.244L134.062 38.22C134.528 38.5187 135.135 38.7893 135.882 39.032C136.647 39.256 137.403 39.368 138.15 39.368C139.214 39.368 139.746 39.0507 139.746 38.416C139.746 38.1733 139.606 37.9773 139.326 37.828C139.046 37.6787 138.691 37.5387 138.262 37.408C137.832 37.2587 137.366 37.0907 136.862 36.904C136.358 36.7173 135.891 36.484 135.462 36.204C135.032 35.9053 134.678 35.532 134.398 35.084C134.118 34.636 133.978 34.0667 133.978 33.376C133.978 32.6293 134.183 31.9667 134.594 31.388C135.023 30.7907 135.63 30.3147 136.414 29.96C137.198 29.6053 138.131 29.428 139.214 29.428C139.942 29.428 140.632 29.484 141.286 29.596C141.939 29.6893 142.471 29.8387 142.882 30.044ZM155.497 36.708H147.601C147.713 37.212 147.937 37.6507 148.273 38.024C148.627 38.3787 149.075 38.6493 149.617 38.836C150.177 39.0227 150.83 39.116 151.577 39.116C152.211 39.116 152.893 39.032 153.621 38.864C154.349 38.6773 154.946 38.444 155.413 38.164L155.553 41.216C155.067 41.552 154.414 41.8133 153.593 42C152.79 42.168 152.034 42.252 151.325 42.252C149.738 42.252 148.375 41.9907 147.237 41.468C146.117 40.9267 145.267 40.1707 144.689 39.2C144.129 38.2293 143.849 37.0907 143.849 35.784C143.849 34.496 144.11 33.3853 144.633 32.452C145.174 31.5 145.911 30.7627 146.845 30.24C147.797 29.6987 148.861 29.428 150.037 29.428C151.119 29.428 152.081 29.6427 152.921 30.072C153.779 30.5013 154.442 31.1267 154.909 31.948C155.394 32.7507 155.637 33.7213 155.637 34.86C155.637 35.1027 155.618 35.4013 155.581 35.756C155.562 36.092 155.534 36.4093 155.497 36.708ZM150.065 32.004C149.337 32.004 148.739 32.2467 148.273 32.732C147.825 33.2173 147.554 33.8613 147.461 34.664H152.305C152.305 34.6267 152.305 34.5707 152.305 34.496C152.305 34.4027 152.305 34.3373 152.305 34.3C152.305 33.6093 152.099 33.0587 151.689 32.648C151.297 32.2187 150.755 32.004 150.065 32.004ZM160.473 24.248V42H156.889V24.416L160.473 24.248ZM169.871 24.444L169.731 27.524C169.601 27.468 169.423 27.4307 169.199 27.412C168.994 27.3933 168.798 27.384 168.611 27.384C167.939 27.384 167.426 27.5333 167.071 27.832C166.717 28.1307 166.539 28.6253 166.539 29.316V29.68H169.591L169.339 32.76H166.539V42H162.955V32.76H161.275V29.68H162.955V29.26C162.955 27.6173 163.431 26.376 164.383 25.536C165.335 24.6773 166.614 24.248 168.219 24.248C168.481 24.248 168.77 24.2667 169.087 24.304C169.405 24.3413 169.666 24.388 169.871 24.444Z" fill="#FFA0A0"/>
<path d="M48.4377 78H43.5601L41.8427 73.0194H34.6637L32.9119 78H28.2748L35.6942 57.5966H41.0183L48.4377 78ZM40.6748 69.4127L39.0261 64.7756C38.8658 64.3176 38.7284 63.894 38.6139 63.5047C38.5223 63.0925 38.4307 62.6803 38.3391 62.2681H38.1673C38.0757 62.6803 37.9727 63.0925 37.8582 63.5047C37.7666 63.894 37.6407 64.3176 37.4804 64.7756L35.7972 69.4127H40.6748ZM64.2568 78H59.8601V68.9662C59.8601 68.0731 59.6426 67.4319 59.2075 67.0426C58.7724 66.6533 58.177 66.4587 57.4214 66.4587C56.9176 66.4587 56.4023 66.5503 55.8756 66.7335C55.349 66.8938 54.8452 67.1228 54.3643 67.4205V78H49.9676V62.9894L54.3643 62.7833V64.1917C55.0971 63.6421 55.8413 63.2413 56.597 62.9894C57.3756 62.7146 58.1885 62.5772 59.0358 62.5772C60.6158 62.5772 61.8753 63.0238 62.8142 63.9169C63.7759 64.787 64.2568 66.161 64.2568 68.0388V78ZM86.6847 78H82.5284V76.8321C81.9788 77.2672 81.3147 77.6222 80.5362 77.897C79.7576 78.1717 78.8989 78.3091 77.96 78.3091C76.2883 78.3091 75.006 77.9084 74.1129 77.1069C73.2427 76.3054 72.8076 75.1948 72.8076 73.7751C72.8076 72.2408 73.3457 71.0844 74.422 70.3058C75.4983 69.5043 76.9524 69.1036 78.7844 69.1036C79.4484 69.1036 80.1125 69.1608 80.7766 69.2753C81.4407 69.3898 81.9788 69.5387 82.391 69.7219V68.8975C82.391 68.0044 82.1048 67.3747 81.5323 67.0083C80.9827 66.619 80.1125 66.4243 78.9218 66.4243C78.0745 66.4243 77.2043 66.5274 76.3112 66.7335C75.441 66.9396 74.7426 67.2029 74.2159 67.5235L74.0442 63.6764C74.7541 63.3329 75.5899 63.0696 76.5517 62.8864C77.5363 62.6803 78.5439 62.5772 79.5744 62.5772C81.8643 62.5772 83.6161 63.0696 84.8298 64.0543C86.0664 65.016 86.6847 66.5388 86.6847 68.6227V78ZM82.391 74.4964V72.3324C82.0704 72.1721 81.6697 72.0462 81.1888 71.9546C80.7308 71.863 80.2843 71.8172 79.8492 71.8172C78.979 71.8172 78.3149 71.9775 77.8569 72.298C77.3989 72.5957 77.1699 73.0652 77.1699 73.7064C77.1699 74.3017 77.3646 74.7368 77.7539 75.0116C78.1432 75.2635 78.7157 75.3895 79.4713 75.3895C79.998 75.3895 80.5362 75.3093 81.0857 75.149C81.6353 74.9658 82.0704 74.7483 82.391 74.4964ZM112.584 62.8864L108.119 78H103.447L101.661 72.6759C101.341 71.5767 101.077 70.6951 100.871 70.031C100.665 69.344 100.493 68.7143 100.356 68.1418H100.184C100.07 68.7143 99.8979 69.344 99.6689 70.031C99.4628 70.6951 99.1995 71.5767 98.8789 72.6759L97.0927 78H92.4212L87.9558 62.9894L92.3869 62.7833L94.4135 69.9967C94.528 70.4775 94.6425 71.05 94.757 71.7141C94.8944 72.3553 94.9974 72.9507 95.0661 73.5003H95.2379C95.3066 72.9507 95.421 72.3553 95.5813 71.7141C95.7416 71.05 95.8905 70.4775 96.0279 69.9967L98.0201 64.0199H102.692L104.684 69.9967C104.821 70.4775 104.97 71.05 105.13 71.7141C105.291 72.3553 105.405 72.9507 105.474 73.5003H105.646C105.714 72.9507 105.806 72.3553 105.92 71.7141C106.058 71.05 106.184 70.4775 106.298 69.9967L108.256 62.8864H112.584ZM137.767 78H133.37V68.9662C133.37 68.8517 133.359 68.7486 133.336 68.657C133.313 68.5654 133.29 68.4738 133.267 68.3822C133.198 67.6953 132.969 67.2029 132.58 66.9052C132.191 66.6075 131.687 66.4587 131.069 66.4587C131.046 66.4587 131.012 66.4701 130.966 66.493C130.92 66.493 130.886 66.493 130.863 66.493C130.428 66.5159 129.97 66.6075 129.489 66.7678C129.031 66.9281 128.584 67.1457 128.149 67.4205C128.172 67.6266 128.183 67.8327 128.183 68.0388C128.206 68.2449 128.218 68.4624 128.218 68.6914V78H123.855V68.9662C123.855 68.8517 123.844 68.7486 123.821 68.657C123.798 68.5654 123.775 68.4738 123.752 68.3822C123.684 67.6953 123.455 67.2029 123.065 66.9052C122.676 66.6075 122.172 66.4587 121.554 66.4587C121.119 66.4587 120.638 66.5503 120.111 66.7335C119.608 66.8938 119.138 67.1228 118.703 67.4205V78H114.306V62.9894L118.703 62.7833V64.1917C119.207 63.8024 119.711 63.4932 120.214 63.2642C120.741 63.0123 121.256 62.852 121.76 62.7833C122.356 62.6459 122.985 62.6116 123.649 62.6803C124.474 62.7261 125.218 62.9207 125.882 63.2642C126.546 63.6077 127.073 64.123 127.462 64.8099C128.264 64.0314 129.088 63.4703 129.935 63.1268C130.805 62.7604 131.687 62.5772 132.58 62.5772C134.114 62.5772 135.362 63.0238 136.324 63.9169C137.286 64.787 137.767 66.161 137.767 68.0388V78ZM153.648 78H149.492V76.8321C148.942 77.2672 148.278 77.6222 147.499 77.897C146.721 78.1717 145.862 78.3091 144.923 78.3091C143.252 78.3091 141.969 77.9084 141.076 77.1069C140.206 76.3054 139.771 75.1948 139.771 73.7751C139.771 72.2408 140.309 71.0844 141.385 70.3058C142.462 69.5043 143.916 69.1036 145.748 69.1036C146.412 69.1036 147.076 69.1608 147.74 69.2753C148.404 69.3898 148.942 69.5387 149.354 69.7219V68.8975C149.354 68.0044 149.068 67.3747 148.496 67.0083C147.946 66.619 147.076 66.4243 145.885 66.4243C145.038 66.4243 144.168 66.5274 143.275 66.7335C142.404 66.9396 141.706 67.2029 141.179 67.5235L141.008 63.6764C141.717 63.3329 142.553 63.0696 143.515 62.8864C144.5 62.6803 145.507 62.5772 146.538 62.5772C148.828 62.5772 150.579 63.0696 151.793 64.0543C153.03 65.016 153.648 66.5388 153.648 68.6227V78ZM149.354 74.4964V72.3324C149.034 72.1721 148.633 72.0462 148.152 71.9546C147.694 71.863 147.248 71.8172 146.813 71.8172C145.942 71.8172 145.278 71.9775 144.82 72.298C144.362 72.5957 144.133 73.0652 144.133 73.7064C144.133 74.3017 144.328 74.7368 144.717 75.0116C145.107 75.2635 145.679 75.3895 146.435 75.3895C146.961 75.3895 147.499 75.3093 148.049 75.149C148.599 74.9658 149.034 74.7483 149.354 74.4964ZM155.735 78V74.2559L163.12 66.6648H156.147V62.8864H168.341V66.6304L160.99 74.2216H168.753V78H155.735ZM173.205 55.9479C173.892 55.9479 174.453 56.1769 174.888 56.6349C175.323 57.0699 175.541 57.6195 175.541 58.2836C175.541 58.9706 175.323 59.5431 174.888 60.0011C174.453 60.4362 173.892 60.6537 173.205 60.6537C172.495 60.6537 171.9 60.4362 171.419 60.0011C170.961 59.5431 170.732 58.9706 170.732 58.2836C170.732 57.6195 170.961 57.0699 171.419 56.6349C171.9 56.1769 172.495 55.9479 173.205 55.9479ZM175.335 62.7833V78H170.938V62.9894L175.335 62.7833ZM192.532 78H188.135V68.9662C188.135 68.0731 187.918 67.4319 187.483 67.0426C187.048 66.6533 186.452 66.4587 185.697 66.4587C185.193 66.4587 184.677 66.5503 184.151 66.7335C183.624 66.8938 183.12 67.1228 182.639 67.4205V78H178.243V62.9894L182.639 62.7833V64.1917C183.372 63.6421 184.116 63.2413 184.872 62.9894C185.651 62.7146 186.464 62.5772 187.311 62.5772C188.891 62.5772 190.15 63.0238 191.089 63.9169C192.051 64.787 192.532 66.161 192.532 68.0388V78ZM209.526 62.3712L209.492 65.7717H207.225C207.454 66.0694 207.625 66.4129 207.74 66.8022C207.877 67.1686 207.946 67.5579 207.946 67.9701C207.946 69.5501 207.396 70.821 206.297 71.7828C205.198 72.7217 203.698 73.2369 201.797 73.3285L200.217 74.8742C200.492 74.8284 200.813 74.7941 201.179 74.7712C201.546 74.7254 201.912 74.7025 202.278 74.7025C202.645 74.6796 202.931 74.6681 203.137 74.6681C205.267 74.6681 206.893 75.0803 208.015 75.9047C209.16 76.7062 209.732 77.8741 209.732 79.4083C209.732 80.9197 209.102 82.1677 207.843 83.1524C206.606 84.1599 204.603 84.6637 201.832 84.6637C200.229 84.6637 198.729 84.5149 197.332 84.2172C195.958 83.9195 194.847 83.5188 194 83.015L194.344 79.2366C194.825 79.5801 195.477 79.8892 196.302 80.164C197.126 80.4388 198.042 80.6563 199.049 80.8166C200.08 80.9998 201.088 81.0914 202.072 81.0914C203.057 81.0914 203.801 81.0227 204.305 80.8853C204.809 80.7708 205.164 80.5876 205.37 80.3357C205.576 80.1067 205.679 79.8205 205.679 79.477C205.679 78.9503 205.416 78.5725 204.889 78.3435C204.385 78.1374 203.435 78.0343 202.038 78.0343C201.191 78.0343 200.286 78.0687 199.324 78.1374C198.362 78.2061 197.538 78.3206 196.851 78.4809V75.4238L199.29 73.1224C197.824 72.8476 196.691 72.2408 195.889 71.3019C195.088 70.363 194.687 69.2524 194.687 67.9701C194.687 66.8709 194.95 65.9206 195.477 65.1191C196.027 64.3176 196.794 63.6993 197.779 63.2642C198.786 62.8062 199.965 62.5772 201.317 62.5772C202.255 62.5772 203.126 62.7032 203.927 62.9551L209.526 62.3712ZM203.927 67.9701C203.927 67.2602 203.687 66.6762 203.206 66.2183C202.748 65.7603 202.118 65.5313 201.317 65.5313C200.492 65.5313 199.839 65.7603 199.359 66.2183C198.901 66.6762 198.672 67.2602 198.672 67.9701C198.672 68.657 198.901 69.2295 199.359 69.6875C199.839 70.1455 200.492 70.3745 201.317 70.3745C202.118 70.3745 202.748 70.157 203.206 69.7219C203.687 69.2639 203.927 68.6799 203.927 67.9701ZM236.657 78H231.78L230.062 73.0194H222.883L221.132 78H216.495L223.914 57.5966H229.238L236.657 78ZM228.895 69.4127L227.246 64.7756C227.085 64.3176 226.948 63.894 226.834 63.5047C226.742 63.0925 226.65 62.6803 226.559 62.2681H226.387C226.295 62.6803 226.192 63.0925 226.078 63.5047C225.986 63.894 225.86 64.3176 225.7 64.7756L224.017 69.4127H228.895ZM254.057 64.6038C254.057 66.1152 253.713 67.3976 253.026 68.4509C252.362 69.5043 251.389 70.2943 250.106 70.821C248.824 71.3477 247.278 71.6111 245.469 71.6111H243.065V78H238.496V57.5966H245.504C247.313 57.5966 248.847 57.8714 250.106 58.421C251.389 58.9706 252.362 59.7606 253.026 60.7911C253.713 61.8216 254.057 63.0925 254.057 64.6038ZM249.488 64.6038C249.488 63.8482 249.316 63.2299 248.973 62.749C248.652 62.2681 248.183 61.9132 247.565 61.6842C246.969 61.4552 246.248 61.3407 245.401 61.3407H243.065V67.867H245.401C246.248 67.867 246.969 67.7525 247.565 67.5235C248.183 67.2945 248.652 66.9396 248.973 66.4587C249.316 65.9778 249.488 65.3595 249.488 64.6038ZM261.104 57.5966V78H256.535V57.5966H261.104ZM53.1092 91.8864L48.6438 107H43.9723L42.1862 101.676C41.8656 100.577 41.6022 99.6951 41.3962 99.031C41.1901 98.344 41.0183 97.7143 40.8809 97.1418H40.7092C40.5947 97.7143 40.4229 98.344 40.1939 99.031C39.9878 99.6951 39.7245 100.577 39.4039 101.676L37.6178 107H32.9463L28.4809 91.9894L32.9119 91.7833L34.9385 98.9967C35.053 99.4775 35.1675 100.05 35.282 100.714C35.4194 101.355 35.5225 101.951 35.5912 102.5H35.7629C35.8316 101.951 35.9461 101.355 36.1064 100.714C36.2667 100.05 36.4155 99.4775 36.5529 98.9967L38.5452 93.0199H43.2167L45.2089 98.9967C45.3463 99.4775 45.4951 100.05 45.6554 100.714C45.8157 101.355 45.9302 101.951 45.9989 102.5H46.1707C46.2394 101.951 46.331 101.355 46.4455 100.714C46.5829 100.05 46.7088 99.4775 46.8233 98.9967L48.7812 91.8864H53.1092ZM64.4492 91.749L64.2775 95.9739C64.1401 95.9052 63.8997 95.8365 63.5562 95.7678C63.2356 95.6991 62.9264 95.6648 62.6287 95.6648C62.0105 95.6648 61.4036 95.7793 60.8082 96.0083C60.2358 96.2144 59.7091 96.5006 59.2282 96.867V107H54.8315V91.9894L59.2282 91.7833V93.5695C59.8923 92.8825 60.5678 92.3787 61.2548 92.0581C61.9647 91.7375 62.6974 91.5772 63.4531 91.5772C63.6134 91.5772 63.7852 91.5887 63.9684 91.6116C64.1744 91.6345 64.3347 91.6803 64.4492 91.749ZM79.1118 107H74.9555V105.832C74.4059 106.267 73.7418 106.622 72.9633 106.897C72.1847 107.172 71.326 107.309 70.3871 107.309C68.7154 107.309 67.4331 106.908 66.54 106.107C65.6698 105.305 65.2347 104.195 65.2347 102.775C65.2347 101.241 65.7728 100.084 66.8491 99.3058C67.9254 98.5043 69.3795 98.1036 71.2115 98.1036C71.8755 98.1036 72.5396 98.1608 73.2037 98.2753C73.8678 98.3898 74.4059 98.5387 74.8181 98.7219V97.8975C74.8181 97.0044 74.5319 96.3747 73.9594 96.0083C73.4098 95.619 72.5396 95.4243 71.3489 95.4243C70.5016 95.4243 69.6314 95.5274 68.7383 95.7335C67.8681 95.9396 67.1697 96.2029 66.643 96.5235L66.4713 92.6764C67.1812 92.3329 68.017 92.0696 68.9788 91.8864C69.9634 91.6803 70.971 91.5772 72.0015 91.5772C74.2914 91.5772 76.0432 92.0696 77.2569 93.0543C78.4935 94.016 79.1118 95.5388 79.1118 97.6227V107ZM74.8181 103.496V101.332C74.4975 101.172 74.0968 101.046 73.6159 100.955C73.1579 100.863 72.7114 100.817 72.2763 100.817C71.4061 100.817 70.742 100.977 70.284 101.298C69.826 101.596 69.597 102.065 69.597 102.706C69.597 103.302 69.7917 103.737 70.181 104.012C70.5703 104.264 71.1428 104.389 71.8984 104.389C72.4251 104.389 72.9633 104.309 73.5128 104.149C74.0624 103.966 74.4975 103.748 74.8181 103.496ZM97.0997 99.2714C97.0997 100.806 96.7676 102.18 96.1036 103.393C95.4624 104.607 94.5693 105.569 93.4243 106.279C92.3023 106.966 90.997 107.309 89.5085 107.309C88.2262 107.309 87.1842 107.103 86.3828 106.691V113.355H81.9861V91.9894L86.3828 91.7833V92.8825C86.9094 92.4474 87.4934 92.1268 88.1346 91.9207C88.7757 91.6917 89.5085 91.5772 90.3329 91.5772C91.5924 91.5772 92.7259 91.8864 93.7335 92.5047C94.7639 93.123 95.5769 94.0046 96.1723 95.1496C96.7905 96.2945 97.0997 97.6685 97.0997 99.2714ZM92.5656 99.4088C92.5656 98.5845 92.4282 97.8746 92.1534 97.2792C91.8786 96.6609 91.4664 96.1915 90.9168 95.8709C90.3902 95.5274 89.7261 95.3556 88.9246 95.3556C87.9399 95.3556 87.0926 95.619 86.3828 96.1457V103.119C86.6805 103.233 87.0239 103.336 87.4132 103.428C87.8254 103.496 88.2491 103.531 88.6842 103.531C89.4856 103.531 90.1726 103.37 90.7451 103.05C91.3176 102.706 91.7641 102.225 92.0847 101.607C92.4053 100.966 92.5656 100.233 92.5656 99.4088ZM114.199 99.2714C114.199 100.806 113.867 102.18 113.203 103.393C112.562 104.607 111.669 105.569 110.524 106.279C109.402 106.966 108.096 107.309 106.608 107.309C105.326 107.309 104.284 107.103 103.482 106.691V113.355H99.0855V91.9894L103.482 91.7833V92.8825C104.009 92.4474 104.593 92.1268 105.234 91.9207C105.875 91.6917 106.608 91.5772 107.432 91.5772C108.692 91.5772 109.825 91.8864 110.833 92.5047C111.863 93.123 112.676 94.0046 113.272 95.1496C113.89 96.2945 114.199 97.6685 114.199 99.2714ZM109.665 99.4088C109.665 98.5845 109.528 97.8746 109.253 97.2792C108.978 96.6609 108.566 96.1915 108.016 95.8709C107.49 95.5274 106.825 95.3556 106.024 95.3556C105.039 95.3556 104.192 95.619 103.482 96.1457V103.119C103.78 103.233 104.123 103.336 104.513 103.428C104.925 103.496 105.348 103.531 105.784 103.531C106.585 103.531 107.272 103.37 107.845 103.05C108.417 102.706 108.864 102.225 109.184 101.607C109.505 100.966 109.665 100.233 109.665 99.4088ZM129.581 100.508H119.895C120.032 101.126 120.307 101.664 120.719 102.122C121.154 102.558 121.704 102.89 122.368 103.119C123.055 103.348 123.856 103.462 124.772 103.462C125.551 103.462 126.387 103.359 127.28 103.153C128.173 102.924 128.906 102.638 129.478 102.294L129.65 106.038C129.054 106.45 128.253 106.771 127.245 107C126.261 107.206 125.333 107.309 124.463 107.309C122.517 107.309 120.845 106.989 119.448 106.347C118.074 105.683 117.032 104.756 116.322 103.565C115.635 102.374 115.292 100.977 115.292 99.3745C115.292 97.7944 115.612 96.4319 116.254 95.287C116.918 94.1191 117.822 93.2146 118.967 92.5734C120.135 91.9093 121.44 91.5772 122.883 91.5772C124.211 91.5772 125.39 91.8406 126.421 92.3673C127.474 92.894 128.287 93.6611 128.86 94.6687C129.455 95.6533 129.753 96.8441 129.753 98.241C129.753 98.5387 129.73 98.9051 129.684 99.3401C129.661 99.7523 129.627 100.142 129.581 100.508ZM122.917 94.7374C122.024 94.7374 121.291 95.0351 120.719 95.6304C120.169 96.2258 119.837 97.0159 119.723 98.0005H125.665C125.665 97.9547 125.665 97.886 125.665 97.7944C125.665 97.6799 125.665 97.5998 125.665 97.554C125.665 96.7067 125.413 96.0312 124.91 95.5274C124.429 95.0007 123.765 94.7374 122.917 94.7374ZM141.594 91.749L141.422 95.9739C141.285 95.9052 141.044 95.8365 140.701 95.7678C140.38 95.6991 140.071 95.6648 139.773 95.6648C139.155 95.6648 138.548 95.7793 137.953 96.0083C137.38 96.2144 136.854 96.5006 136.373 96.867V107H131.976V91.9894L136.373 91.7833V93.5695C137.037 92.8825 137.712 92.3787 138.399 92.0581C139.109 91.7375 139.842 91.5772 140.598 91.5772C140.758 91.5772 140.93 91.5887 141.113 91.6116C141.319 91.6345 141.479 91.6803 141.594 91.749ZM159.114 85.4631L158.942 89.2415C158.782 89.1728 158.564 89.127 158.29 89.1041C158.038 89.0812 157.797 89.0698 157.568 89.0698C156.744 89.0698 156.114 89.253 155.679 89.6193C155.244 89.9857 155.027 90.5926 155.027 91.4399V91.8864H158.771L158.461 95.6648H155.027V107H150.63V95.6648H148.569V91.8864H150.63V91.3712C150.63 89.356 151.214 87.8332 152.382 86.8027C153.55 85.7493 155.118 85.2227 157.087 85.2227C157.408 85.2227 157.763 85.2456 158.152 85.2914C158.542 85.3372 158.862 85.3944 159.114 85.4631ZM175.888 99.4432C175.888 100.955 175.533 102.306 174.823 103.496C174.136 104.687 173.174 105.626 171.938 106.313C170.701 106.977 169.293 107.309 167.713 107.309C166.133 107.309 164.724 106.977 163.488 106.313C162.251 105.626 161.278 104.687 160.568 103.496C159.881 102.306 159.538 100.955 159.538 99.4432C159.538 97.9089 159.881 96.5579 160.568 95.39C161.278 94.1992 162.251 93.2718 163.488 92.6077C164.724 91.9207 166.133 91.5772 167.713 91.5772C169.293 91.5772 170.701 91.9207 171.938 92.6077C173.174 93.2718 174.136 94.1992 174.823 95.39C175.533 96.5579 175.888 97.9089 175.888 99.4432ZM171.354 99.4432C171.354 98.6417 171.194 97.9433 170.873 97.3479C170.552 96.7296 170.117 96.2602 169.568 95.9396C169.018 95.5961 168.4 95.4243 167.713 95.4243C167.026 95.4243 166.408 95.5961 165.858 95.9396C165.308 96.2602 164.873 96.7296 164.553 97.3479C164.232 97.9433 164.072 98.6417 164.072 99.4432C164.072 100.245 164.232 100.955 164.553 101.573C164.873 102.168 165.308 102.638 165.858 102.981C166.431 103.302 167.049 103.462 167.713 103.462C168.423 103.462 169.052 103.302 169.602 102.981C170.152 102.638 170.575 102.168 170.873 101.573C171.194 100.955 171.354 100.245 171.354 99.4432ZM187.483 91.749L187.312 95.9739C187.174 95.9052 186.934 95.8365 186.59 95.7678C186.27 95.6991 185.961 95.6648 185.663 95.6648C185.045 95.6648 184.438 95.7793 183.842 96.0083C183.27 96.2144 182.743 96.5006 182.262 96.867V107H177.866V91.9894L182.262 91.7833V93.5695C182.926 92.8825 183.602 92.3787 184.289 92.0581C184.999 91.7375 185.732 91.5772 186.487 91.5772C186.648 91.5772 186.819 91.5887 187.003 91.6116C187.209 91.6345 187.369 91.6803 187.483 91.749Z" fill="white"/>
<path d="M205.038 107H200.47V90.7185H194.63V86.5966H211.049L210.706 90.7185H205.038V107ZM226.51 91.7833V107H222.114V105.729C221.404 106.279 220.682 106.679 219.95 106.931C219.217 107.183 218.427 107.309 217.579 107.309C216.022 107.309 214.763 106.874 213.801 106.004C212.839 105.111 212.358 103.725 212.358 101.848V91.9894L216.755 91.7833V100.92C216.755 101.813 216.973 102.454 217.408 102.844C217.843 103.233 218.438 103.428 219.194 103.428C219.698 103.428 220.201 103.348 220.705 103.187C221.209 103.004 221.678 102.775 222.114 102.5V91.9894L226.51 91.7833ZM239.042 91.749L238.87 95.9739C238.733 95.9052 238.492 95.8365 238.149 95.7678C237.828 95.6991 237.519 95.6648 237.222 95.6648C236.603 95.6648 235.996 95.7793 235.401 96.0083C234.829 96.2144 234.302 96.5006 233.821 96.867V107H229.424V91.9894L233.821 91.7833V93.5695C234.485 92.8825 235.161 92.3787 235.848 92.0581C236.557 91.7375 237.29 91.5772 238.046 91.5772C238.206 91.5772 238.378 91.5887 238.561 91.6116C238.767 91.6345 238.928 91.6803 239.042 91.749ZM255.834 99.2028C255.834 100.806 255.491 102.225 254.804 103.462C254.117 104.676 253.132 105.626 251.85 106.313C250.567 106.977 249.033 107.309 247.247 107.309C246.01 107.309 244.831 107.183 243.709 106.931C242.587 106.657 241.591 106.313 240.721 105.901V85.4288L245.117 85.2227V92.8138C245.736 92.3787 246.354 92.0696 246.972 91.8864C247.613 91.6803 248.312 91.5772 249.067 91.5772C250.35 91.5772 251.495 91.8864 252.502 92.5047C253.533 93.123 254.346 94.0046 254.941 95.1496C255.536 96.2716 255.834 97.6227 255.834 99.2028ZM251.3 99.4088C251.3 98.5845 251.163 97.8746 250.888 97.2792C250.613 96.6609 250.201 96.1915 249.651 95.8709C249.125 95.5274 248.461 95.3556 247.659 95.3556C246.674 95.3556 245.827 95.619 245.117 96.1457V103.119C245.415 103.233 245.758 103.336 246.148 103.428C246.56 103.496 246.984 103.531 247.419 103.531C248.22 103.531 248.907 103.37 249.48 103.05C250.052 102.706 250.499 102.225 250.819 101.607C251.14 100.966 251.3 100.233 251.3 99.4088ZM273.277 99.4432C273.277 100.955 272.922 102.306 272.212 103.496C271.525 104.687 270.564 105.626 269.327 106.313C268.09 106.977 266.682 107.309 265.102 107.309C263.522 107.309 262.114 106.977 260.877 106.313C259.64 105.626 258.667 104.687 257.957 103.496C257.27 102.306 256.927 100.955 256.927 99.4432C256.927 97.9089 257.27 96.5579 257.957 95.39C258.667 94.1992 259.64 93.2718 260.877 92.6077C262.114 91.9207 263.522 91.5772 265.102 91.5772C266.682 91.5772 268.09 91.9207 269.327 92.6077C270.564 93.2718 271.525 94.1992 272.212 95.39C272.922 96.5579 273.277 97.9089 273.277 99.4432ZM268.743 99.4432C268.743 98.6417 268.583 97.9433 268.262 97.3479C267.942 96.7296 267.506 96.2602 266.957 95.9396C266.407 95.5961 265.789 95.4243 265.102 95.4243C264.415 95.4243 263.797 95.5961 263.247 95.9396C262.698 96.2602 262.262 96.7296 261.942 97.3479C261.621 97.9433 261.461 98.6417 261.461 99.4432C261.461 100.245 261.621 100.955 261.942 101.573C262.262 102.168 262.698 102.638 263.247 102.981C263.82 103.302 264.438 103.462 265.102 103.462C265.812 103.462 266.442 103.302 266.991 102.981C267.541 102.638 267.964 102.168 268.262 101.573C268.583 100.955 268.743 100.245 268.743 99.4432ZM285.697 92.3329L285.044 95.9052C284.563 95.6762 283.968 95.493 283.258 95.3556C282.571 95.1954 281.873 95.1152 281.163 95.1152C280.522 95.1152 280.041 95.2183 279.72 95.4243C279.423 95.6304 279.274 95.9052 279.274 96.2487C279.274 96.5235 279.445 96.764 279.789 96.9701C280.132 97.1533 280.568 97.325 281.094 97.4853C281.644 97.6456 282.216 97.8402 282.812 98.0692C283.43 98.2982 284.002 98.5845 284.529 98.928C285.079 99.2714 285.514 99.7294 285.834 100.302C286.178 100.852 286.35 101.55 286.35 102.397C286.35 103.267 286.132 104.08 285.697 104.836C285.285 105.569 284.598 106.164 283.636 106.622C282.697 107.08 281.472 107.309 279.961 107.309C278.93 107.309 277.923 107.195 276.938 106.966C275.976 106.737 275.198 106.439 274.602 106.073L274.877 102.363C275.449 102.729 276.194 103.061 277.11 103.359C278.049 103.634 278.976 103.771 279.892 103.771C281.197 103.771 281.85 103.382 281.85 102.603C281.85 102.306 281.678 102.065 281.335 101.882C280.991 101.699 280.556 101.527 280.029 101.367C279.503 101.184 278.93 100.977 278.312 100.748C277.694 100.519 277.121 100.233 276.594 99.8897C276.068 99.5233 275.633 99.0654 275.289 98.5158C274.946 97.9662 274.774 97.2678 274.774 96.4205C274.774 95.5045 275.026 94.6916 275.53 93.9817C276.056 93.2489 276.801 92.665 277.762 92.2299C278.724 91.7948 279.869 91.5772 281.197 91.5772C282.09 91.5772 282.938 91.6459 283.739 91.7833C284.541 91.8978 285.193 92.081 285.697 92.3329ZM301.859 100.508H292.173C292.31 101.126 292.585 101.664 292.997 102.122C293.432 102.558 293.982 102.89 294.646 103.119C295.333 103.348 296.134 103.462 297.05 103.462C297.829 103.462 298.665 103.359 299.558 103.153C300.451 102.924 301.184 102.638 301.756 102.294L301.928 106.038C301.333 106.45 300.531 106.771 299.524 107C298.539 107.206 297.611 107.309 296.741 107.309C294.795 107.309 293.123 106.989 291.726 106.347C290.352 105.683 289.31 104.756 288.601 103.565C287.914 102.374 287.57 100.977 287.57 99.3745C287.57 97.7944 287.891 96.4319 288.532 95.287C289.196 94.1191 290.1 93.2146 291.245 92.5734C292.413 91.9093 293.719 91.5772 295.161 91.5772C296.489 91.5772 297.669 91.8406 298.699 92.3673C299.753 92.894 300.566 93.6611 301.138 94.6687C301.733 95.6533 302.031 96.8441 302.031 98.241C302.031 98.5387 302.008 98.9051 301.962 99.3401C301.939 99.7523 301.905 100.142 301.859 100.508ZM295.196 94.7374C294.303 94.7374 293.57 95.0351 292.997 95.6304C292.448 96.2258 292.116 97.0159 292.001 98.0005H297.944C297.944 97.9547 297.944 97.886 297.944 97.7944C297.944 97.6799 297.944 97.5998 297.944 97.554C297.944 96.7067 297.692 96.0312 297.188 95.5274C296.707 95.0007 296.043 94.7374 295.196 94.7374ZM308.651 85.2227V107H304.254V85.4288L308.651 85.2227ZM320.868 85.4631L320.696 89.2415C320.535 89.1728 320.318 89.127 320.043 89.1041C319.791 89.0812 319.551 89.0698 319.322 89.0698C318.497 89.0698 317.868 89.253 317.433 89.6193C316.998 89.9857 316.78 90.5926 316.78 91.4399V91.8864H320.524L320.215 95.6648H316.78V107H312.383V95.6648H310.322V91.8864H312.383V91.3712C312.383 89.356 312.967 87.8332 314.135 86.8027C315.303 85.7493 316.872 85.2227 318.841 85.2227C319.162 85.2227 319.516 85.2456 319.906 85.2914C320.295 85.3372 320.616 85.3944 320.868 85.4631Z" fill="#FFA0A0"/>
<g style="mix-blend-mode:overlay">
<path fill-rule="evenodd" clip-rule="evenodd" d="M477.798 -3.92365L379 -3.92364V-55L477.798 -55L477.798 -3.92365L529.11 -3.92364V94.7405L477.798 95.3454L477.798 47.5157C451.624 47.9714 430.547 69.211 430.547 95.3454H379C379 40.9038 423.155 -3.46485 477.798 -3.92365Z" fill="#FFA0A0"/>
<path fill-rule="evenodd" clip-rule="evenodd" d="M580.893 94.9329L679.691 94.9293V146.187H580.893V94.9293L529.111 94.7407V-3.92344L580.893 -3.92344V43.6713C607.067 43.2156 628.127 22.211 628.127 -3.92344H679.221C679.221 50.5181 635.536 94.4705 580.893 94.9293V94.9329Z" fill="#FFA0A0" fill-opacity="0.5"/>
<path fill-rule="evenodd" clip-rule="evenodd" d="M778.489 47.0959L679.221 47.0959V-3.92334L778.489 -3.92334V47.0995L830.036 47.0995V146.187H778.489V98.3574C752.315 98.8132 731.238 120.053 731.238 146.187H679.691C679.691 91.7456 723.845 47.5583 778.489 47.0995V47.0959Z" fill="#FFA0A0" fill-opacity="0.7"/>
</g>
</g>
<rect x="0.5" y="0.5" width="829" height="134" rx="13.5" stroke="url(#paint2_linear_375_6459)" style="mix-blend-mode:overlay"/>
<rect x="0.5" y="0.5" width="829" height="134" rx="13.5" stroke="url(#paint3_linear_375_6459)" stroke-opacity="0.1"/>
<rect x="0.5" y="0.5" width="829" height="134" rx="13.5" stroke="white" stroke-opacity="0.1"/>
<defs>
<radialGradient id="paint0_radial_375_6459" cx="0" cy="0" r="1" gradientUnits="userSpaceOnUse" gradientTransform="translate(9.4458e-07 165.586) rotate(17.7974) scale(413.385 308.037)">
<stop offset="0.100613" stop-color="#FFA0A0" stop-opacity="0"/>
<stop offset="0.435" stop-color="#B83434"/>
<stop offset="1" stop-color="#FF0000" stop-opacity="0.2"/>
</radialGradient>
<radialGradient id="paint1_radial_375_6459" cx="0" cy="0" r="1" gradientUnits="userSpaceOnUse" gradientTransform="translate(1136.06 -141.75) rotate(105.756) scale(434.619 1675.73)">
<stop stop-color="#FFA0A0" stop-opacity="0"/>
<stop offset="0.5" stop-color="#FFA0A0"/>
<stop offset="1" stop-color="#FFA0A0" stop-opacity="0"/>
</radialGradient>
<linearGradient id="paint2_linear_375_6459" x1="415" y1="0" x2="415" y2="135" gradientUnits="userSpaceOnUse">
<stop stop-color="white" stop-opacity="0.6"/>
<stop offset="0.5" stop-color="white" stop-opacity="0"/>
<stop offset="1" stop-color="white"/>
</linearGradient>
<linearGradient id="paint3_linear_375_6459" x1="415" y1="0" x2="415" y2="135" gradientUnits="userSpaceOnUse">
<stop stop-color="white" stop-opacity="0.6"/>
<stop offset="0.5" stop-color="white" stop-opacity="0"/>
<stop offset="1" stop-color="white"/>
</linearGradient>
<clipPath id="clip0_375_6459">
<rect width="830" height="135" rx="14" fill="white"/>
</clipPath>
</defs>
</svg>
